<svg width="647" height="731" viewBox="0 0 647 731" fill="none" xmlns="http://www.w3.org/2000/svg">
<path d="M505.713 57.0595L111.267 162.343L289.859 632.785L569.477 564.204L505.713 57.0595Z" fill="#375A64"/>
<g opacity="0.300003">
<path d="M131.191 214.828L119.916 183.849L280.008 175.903L353.688 158.381L482.853 103.139L508.927 82.5802L510.07 91.7231C510.07 91.7231 475.186 128.681 398.804 165.014C360.475 183.246 231.483 227.949 131.191 214.828Z" fill="black"/>
</g>
<path d="M520.194 58.1437C528.819 92.568 440.887 144.259 323.79 173.601C206.694 202.941 104.775 198.822 96.15 164.398C87.5251 129.974 175.457 78.2799 292.554 48.9401C409.65 19.5978 511.569 23.7194 520.194 58.1437Z" fill="#FF735D"/>
<path d="M527.437 211.71C423.145 293.261 288.342 322.307 158.508 296.42L251.882 536.537C359.435 552.824 473.268 522.19 558.122 454.122L527.437 211.71Z" fill="#011936"/>
<path d="M505.641 56.7711C512.152 82.7602 428.493 126.116 318.781 153.608C209.067 181.097 114.849 182.315 108.337 156.324C101.823 130.335 185.485 86.979 295.197 59.4897C404.909 31.9979 499.129 30.7821 505.641 56.7711Z" fill="#FF735D"/>
<g opacity="0.300003">
<path d="M505.641 56.7711C512.152 82.7602 428.493 126.116 318.781 153.608C209.067 181.097 114.849 182.315 108.337 156.324C101.823 130.335 185.485 86.979 295.197 59.4897C404.909 31.9979 499.129 30.7821 505.641 56.7711Z" fill="black"/>
</g>
<path d="M293.818 138.944C292.41 132.957 295.803 126.752 300.379 122.643C304.955 118.536 310.648 115.924 315.778 112.532C320.906 109.137 325.743 104.52 327.024 98.5039C328.124 93.3513 326.448 88.0699 325.809 82.8419C325.167 77.6115 326.027 71.4522 330.472 68.6243C335.382 65.4972 342.399 68.4297 345.337 73.4535C348.274 78.4796 348.036 84.7483 346.881 90.4528C343.579 106.779 333.388 121.381 319.866 131.102" fill="#E43F6F"/>
<path d="M387.342 58.499C385.82 53.0011 379.053 49.1689 373.993 51.8023C368.882 54.4552 365.601 57.4509 364.276 62.7664C362.951 68.0844 365.237 74.6449 370.428 76.3981C374.222 77.6795 378.477 76.116 381.592 73.6017C386.032 70.0199 388.862 63.9968 387.342 58.499Z" fill="#E43F6F"/>
<path d="M60.7091 43.5128C54.9875 41.2003 45.5139 44.1717 44.4513 50.2532L44.3881 47.9188C42.1729 53.6793 44.7504 60.9474 50.2215 63.8046C55.6926 66.6593 63.3109 64.4538 66.1972 58.9997C69.0835 53.5432 66.4331 45.8252 60.7091 43.5128Z" fill="#E43F6F"/>
<path d="M457.758 103.595C459.739 98.2945 325.215 115.705 273.271 122.387C248.53 125.567 223.343 128.911 198.922 134.433C169.101 141.176 143.635 149.071 118.3 165.983C118.3 165.983 128.814 179.257 179.671 175.094C217.247 172.018 243.82 172.172 326.314 151.683C408.486 131.274 456 108.296 457.758 103.595Z" fill="#E43F6F"/>
<path d="M137.114 156.447C117.965 129.833 86.4732 112.505 53.7437 110.569C46.7139 110.154 37.7656 109.059 35.8981 102.27C34.6629 97.7742 37.768 92.9669 41.9115 90.8271C46.055 88.6897 50.9401 88.6386 55.5942 88.9402C81.6781 90.6277 106.998 102.231 125.308 120.884C129.574 125.232 133.763 130.134 139.565 131.987C145.367 133.837 153.201 130.798 153.7 124.729C153.977 121.351 151.986 118.273 150.767 115.109C149.549 111.948 149.43 107.673 152.307 105.884C155.764 103.729 160.029 106.997 162.551 110.197C165.073 113.397 168.389 117.22 172.346 116.25C177.136 115.075 177.471 108.293 175.825 103.644C174.179 98.9973 171.691 93.6551 174.344 89.497C176.97 85.3778 183.536 85.4727 187.232 88.6654C190.93 91.8581 192.26 97.0155 192.581 101.888C192.902 106.764 192.418 111.712 193.367 116.502C195.154 125.521 202.622 133.358 211.696 134.815C220.773 136.269 230.699 130.679 233.469 121.915C235.674 114.941 233.501 107.403 233.824 100.099C234.145 92.7918 239.118 84.3201 246.381 85.1736C251.395 85.762 254.877 90.7444 255.837 95.7025C256.8 100.661 255.925 105.767 255.881 110.817C255.837 115.868 256.863 121.366 260.667 124.69C264.47 128.014 271.631 127.493 273.437 122.776" fill="#E43F6F"/>
<path d="M114.057 182.446C114.057 182.446 114.414 182.575 115.081 182.884C115.793 183.219 116.768 183.676 118.02 184.265C120.678 185.308 124.596 186.889 129.887 188.126C140.403 190.786 156.104 192.634 175.521 192.613C214.368 192.632 267.956 186.162 325.76 173.036C354.706 166.606 381.631 157.843 405.537 148.476C429.444 139.098 450.337 129.026 467.076 119.193C483.851 109.413 496.365 99.7445 504.075 92.1165C507.995 88.3597 510.633 85.0624 512.44 82.8521C513.257 81.736 513.894 80.8655 514.361 80.2284C514.801 79.6424 515.054 79.3579 515.054 79.3579C515.054 79.3579 514.872 79.6886 514.468 80.3013C514.025 80.9579 513.42 81.8551 512.644 83.0053C510.898 85.274 508.306 88.6393 504.42 92.4667C496.783 100.238 484.296 110.057 467.53 119.963C450.799 129.926 429.896 140.102 405.965 149.561C382.037 159.008 355.049 167.83 326.042 174.271C268.153 187.414 214.468 193.755 175.518 193.507C156.051 193.415 140.296 191.426 129.763 188.603C124.467 187.287 120.552 185.622 117.918 184.498C116.683 183.861 115.723 183.363 115.02 182.998C114.373 182.653 114.057 182.446 114.057 182.446Z" fill="#1A2E35"/>
<path d="M568.902 564.13C575.859 594.219 518.823 633.102 441.508 650.98C364.19 668.857 295.874 658.958 288.917 628.869C281.96 598.778 338.996 559.894 416.311 542.017C493.629 524.142 561.946 534.041 568.902 564.13Z" fill="#375A64"/>
<path d="M193 382C164 394.5 44.8807 476.344 63.4298 510.342C86.6161 552.839 317.705 289.514 419.129 329.354C501.862 361.852 663.639 353.352 642.034 267.858C627.637 210.889 531.5 249.5 531.5 249.5" stroke="url(#paint0_linear_68_2)" stroke-width="6"/>
<defs>
<linearGradient id="paint0_linear_68_2" x1="138.5" y1="342.5" x2="670.5" y2="346.5" gradientUnits="userSpaceOnUse">
<stop stop-color="#E43F6F"/>
<stop offset="1" stop-color="#E43F6F" stop-opacity="0"/>
</linearGradient>
</defs>
</svg>
