<svg width="128" height="128" viewBox="0 0 128 128" fill="none" xmlns="http://www.w3.org/2000/svg">
<path d="M112 24H16C13.8783 24 11.8434 24.8429 10.3431 26.3431C8.84285 27.8434 8 29.8783 8 32V96C8 98.1217 8.84285 100.157 10.3431 101.657C11.8434 103.157 13.8783 104 16 104H112C114.122 104 116.157 103.157 117.657 101.657C119.157 100.157 120 98.1217 120 96V32C120 29.8783 119.157 27.8434 117.657 26.3431C116.157 24.8429 114.122 24 112 24ZM103.2 32L64 59.12L24.8 32H103.2ZM16 96V35.64L61.72 67.28C62.3896 67.7445 63.1851 67.9934 64 67.9934C64.8149 67.9934 65.6104 67.7445 66.28 67.28L112 35.64V96H16Z" fill="#006C67"/>
</svg>
