<svg width="128" height="128" viewBox="0 0 128 128" fill="none" xmlns="http://www.w3.org/2000/svg">
<path fill-rule="evenodd" clip-rule="evenodd" d="M39.8133 5.6855C46.0693 5.3975 48.064 5.3335 64 5.3335C79.936 5.3335 81.9307 5.40283 88.1814 5.6855C94.432 5.96816 98.6987 6.9655 102.432 8.41083C106.341 9.88816 109.888 12.1975 112.821 15.1842C115.808 18.1122 118.112 21.6535 119.584 25.5682C121.035 29.3015 122.027 33.5682 122.315 39.8082C122.603 46.0748 122.667 48.0695 122.667 64.0002C122.667 79.9362 122.597 81.9308 122.315 88.1868C122.032 94.4268 121.035 98.6935 119.584 102.427C118.112 106.342 115.804 109.889 112.821 112.821C109.888 115.808 106.341 118.112 102.432 119.584C98.6987 121.035 94.432 122.027 88.192 122.315C81.9307 122.603 79.936 122.667 64 122.667C48.064 122.667 46.0693 122.597 39.8133 122.315C33.5733 122.032 29.3067 121.035 25.5733 119.584C21.6583 118.112 18.1111 115.804 15.1787 112.821C12.194 109.892 9.88436 106.346 8.41068 102.432C6.96534 98.6988 5.97334 94.4322 5.68534 88.1922C5.39734 81.9255 5.33334 79.9308 5.33334 64.0002C5.33334 48.0642 5.40268 46.0695 5.68534 39.8188C5.96801 33.5682 6.96534 29.3015 8.41068 25.5682C9.88653 21.6539 12.198 18.1085 15.184 15.1788C18.1122 12.1948 21.6559 9.88519 25.568 8.41083C29.3013 6.9655 33.568 5.9735 39.808 5.6855H39.8133ZM87.7067 16.2455C81.52 15.9628 79.664 15.9042 64 15.9042C48.336 15.9042 46.48 15.9628 40.2933 16.2455C34.5707 16.5068 31.4667 17.4615 29.3973 18.2668C26.6613 19.3335 24.704 20.5975 22.6507 22.6508C20.7043 24.5444 19.2063 26.8497 18.2667 29.3975C17.4613 31.4668 16.5067 34.5708 16.2453 40.2935C15.9627 46.4802 15.904 48.3362 15.904 64.0002C15.904 79.6642 15.9627 81.5202 16.2453 87.7068C16.5067 93.4295 17.4613 96.5335 18.2667 98.6028C19.2053 101.147 20.704 103.456 22.6507 105.35C24.544 107.296 26.8533 108.795 29.3973 109.734C31.4667 110.539 34.5707 111.493 40.2933 111.755C46.48 112.037 48.3307 112.096 64 112.096C79.6693 112.096 81.52 112.037 87.7067 111.755C93.4293 111.493 96.5333 110.539 98.6027 109.734C101.339 108.667 103.296 107.403 105.349 105.35C107.296 103.456 108.795 101.147 109.733 98.6028C110.539 96.5335 111.493 93.4295 111.755 87.7068C112.037 81.5202 112.096 79.6642 112.096 64.0002C112.096 48.3362 112.037 46.4802 111.755 40.2935C111.493 34.5708 110.539 31.4668 109.733 29.3975C108.667 26.6615 107.403 24.7042 105.349 22.6508C103.456 20.7045 101.15 19.2066 98.6027 18.2668C96.5333 17.4615 93.4293 16.5068 87.7067 16.2455ZM56.5067 82.0855C60.6915 83.8275 65.3514 84.0626 69.6903 82.7507C74.0292 81.4387 77.7781 78.6611 80.2966 74.8921C82.8151 71.1232 83.947 66.5968 83.4989 62.0861C83.0509 57.5753 81.0507 53.36 77.84 50.1602C75.7933 48.1147 73.3185 46.5485 70.5938 45.5743C67.8691 44.6001 64.9623 44.2421 62.0827 44.5261C59.203 44.8101 56.4222 45.7291 53.9403 47.2169C51.4584 48.7046 49.3373 50.7241 47.7296 53.13C46.1219 55.5359 45.0677 58.2684 44.6428 61.1306C44.2178 63.9929 44.4328 66.9137 45.2722 69.6829C46.1116 72.4521 47.5546 75.0007 49.4972 77.1453C51.4398 79.2899 53.8337 80.9771 56.5067 82.0855ZM42.6773 42.6775C45.4775 39.8774 48.8017 37.6562 52.4603 36.1408C56.1188 34.6253 60.04 33.8454 64 33.8454C67.96 33.8454 71.8812 34.6253 75.5398 36.1408C79.1983 37.6562 82.5225 39.8774 85.3227 42.6775C88.1228 45.4776 90.344 48.8019 91.8594 52.4604C93.3748 56.119 94.1548 60.0402 94.1548 64.0002C94.1548 67.9602 93.3748 71.8814 91.8594 75.5399C90.344 79.1985 88.1228 82.5227 85.3227 85.3228C79.6676 90.978 71.9976 94.155 64 94.155C56.0025 94.155 48.3325 90.978 42.6773 85.3228C37.0222 79.6677 33.8452 71.9977 33.8452 64.0002C33.8452 56.0026 37.0222 48.3326 42.6773 42.6775ZM100.843 38.3362C101.537 37.6816 102.092 36.8945 102.476 36.0214C102.861 35.1483 103.066 34.2069 103.08 33.2531C103.093 32.2993 102.916 31.3524 102.557 30.4685C102.199 29.5846 101.666 28.7816 100.992 28.107C100.317 27.4325 99.5143 26.9002 98.6304 26.5416C97.7464 26.183 96.7995 26.0054 95.8457 26.0193C94.8919 26.0332 93.9506 26.2383 93.0775 26.6225C92.2044 27.0068 91.4172 27.5623 90.7627 28.2562C89.4897 29.6057 88.7927 31.3981 88.8198 33.2531C88.8468 35.1081 89.5957 36.8795 90.9075 38.1913C92.2193 39.5031 93.9907 40.252 95.8457 40.2791C97.7007 40.3061 99.4932 39.6092 100.843 38.3362Z" fill="#E43F6F"/>
</svg>
