<svg width="512" height="512" viewBox="0 0 512 512" fill="none" xmlns="http://www.w3.org/2000/svg">
<path d="M64 256H256V288H64V256ZM32 176H192V208H32V176Z" fill="#C2C1C2"/>
<path d="M478.704 265.696L430.704 153.696C429.472 150.817 427.422 148.364 424.808 146.64C422.194 144.916 419.131 143.998 416 144H368V112C368 107.757 366.314 103.687 363.314 100.686C360.313 97.6857 356.243 96 352 96H96V128H336V328.896C328.709 333.129 322.329 338.764 317.227 345.476C312.124 352.187 308.401 359.843 306.272 368H205.728C201.834 352.917 192.572 339.773 179.68 331.03C166.787 322.288 151.149 318.547 135.696 320.51C120.243 322.473 106.036 330.004 95.7388 341.692C85.4414 353.38 79.7603 368.423 79.7603 384C79.7603 399.577 85.4414 414.62 95.7388 426.308C106.036 437.996 120.243 445.527 135.696 447.49C151.149 449.453 166.787 445.712 179.68 436.97C192.572 428.227 201.834 415.083 205.728 400H306.272C309.753 413.732 317.712 425.911 328.892 434.611C340.072 443.31 353.834 448.034 368 448.034C382.166 448.034 395.928 443.31 407.108 434.611C418.287 425.911 426.247 413.732 429.728 400H464C468.243 400 472.313 398.314 475.314 395.314C478.314 392.313 480 388.243 480 384V272C480.001 269.832 479.56 267.687 478.704 265.696ZM144 416C137.671 416 131.484 414.123 126.222 410.607C120.959 407.091 116.858 402.093 114.436 396.246C112.014 390.399 111.38 383.965 112.615 377.757C113.85 371.55 116.897 365.848 121.373 361.373C125.848 356.897 131.55 353.85 137.757 352.615C143.964 351.38 150.399 352.014 156.246 354.436C162.093 356.858 167.091 360.959 170.607 366.222C174.123 371.484 176 377.671 176 384C175.992 392.484 172.617 400.619 166.618 406.618C160.619 412.617 152.484 415.992 144 416ZM368 176H405.44L439.744 256H368V176ZM368 416C361.671 416 355.484 414.123 350.222 410.607C344.959 407.091 340.858 402.093 338.436 396.246C336.014 390.399 335.38 383.965 336.615 377.757C337.85 371.55 340.897 365.848 345.373 361.373C349.848 356.897 355.55 353.85 361.757 352.615C367.964 351.38 374.399 352.014 380.246 354.436C386.093 356.858 391.091 360.959 394.607 366.222C398.123 371.484 400 377.671 400 384C399.992 392.484 396.617 400.619 390.618 406.618C384.619 412.617 376.484 415.992 368 416ZM448 368H429.728C426.204 354.295 418.231 342.147 407.06 333.46C395.889 324.773 382.151 320.039 368 320V288H448V368Z" fill="#C2C1C2"/>
</svg>
